<svg xmlns="http://www.w3.org/2000/svg" version="1.1" xmlns:xlink="http://www.w3.org/1999/xlink" xmlns:svgjs="http://svgjs.com/svgjs" width="720" height="360" preserveAspectRatio="none" viewBox="0 0 720 360"><g mask="url(&quot;#SvgjsMask1522&quot;)" fill="none"><rect width="720" height="360" x="0" y="0" fill="rgba(0, 35, 156, 1)"></rect><use xlink:href="#SvgjsPath1523" x="30" y="30" stroke="rgba(255, 255, 255, 0.61)"></use><use xlink:href="#SvgjsPath1524" x="30" y="90" stroke="rgba(255, 255, 255, 0.61)"></use><use xlink:href="#SvgjsPath1523" x="30" y="150" stroke="rgba(255, 255, 255, 0.61)"></use><use xlink:href="#SvgjsPath1524" x="30" y="210" stroke="rgba(255, 255, 255, 0.61)"></use><use xlink:href="#SvgjsPath1525" x="30" y="270" stroke="rgba(255, 255, 255, 0.61)"></use><use xlink:href="#SvgjsPath1526" x="30" y="330" stroke="rgba(255, 255, 255, 0.61)"></use><use xlink:href="#SvgjsPath1525" x="90" y="30" stroke="rgba(255, 255, 255, 0.61)"></use><use xlink:href="#SvgjsPath1523" x="90" y="90" stroke="rgba(255, 255, 255, 0.61)"></use><use xlink:href="#SvgjsPath1523" x="90" y="150" stroke="rgba(255, 255, 255, 0.61)"></use><use xlink:href="#SvgjsPath1524" x="90" y="210" stroke="rgba(255, 255, 255, 0.61)"></use><use xlink:href="#SvgjsPath1526" x="90" y="270" stroke="rgba(255, 255, 255, 0.61)"></use><use xlink:href="#SvgjsPath1526" x="90" y="330" stroke="rgba(255, 255, 255, 0.61)"></use><use xlink:href="#SvgjsPath1523" x="150" y="30" stroke="rgba(255, 255, 255, 0.61)"></use><use xlink:href="#SvgjsPath1524" x="150" y="90" stroke="rgba(255, 255, 255, 0.61)"></use><use xlink:href="#SvgjsPath1527" x="150" y="150" stroke="rgba(255, 255, 255, 0.61)"></use><use xlink:href="#SvgjsPath1523" x="150" y="210" stroke="rgba(255, 255, 255, 0.61)"></use><use xlink:href="#SvgjsPath1523" x="150" y="270" stroke="rgba(255, 255, 255, 0.61)"></use><use xlink:href="#SvgjsPath1526" x="150" y="330" stroke="rgba(255, 255, 255, 0.61)"></use><use xlink:href="#SvgjsPath1523" x="210" y="30" stroke="rgba(255, 255, 255, 0.61)"></use><use xlink:href="#SvgjsPath1524" x="210" y="90" stroke="rgba(255, 255, 255, 0.61)"></use><use xlink:href="#SvgjsPath1524" x="210" y="150" stroke="rgba(255, 255, 255, 0.61)"></use><use xlink:href="#SvgjsPath1524" x="210" y="210" stroke="rgba(255, 255, 255, 0.61)"></use><use xlink:href="#SvgjsPath1524" x="210" y="270" stroke="rgba(255, 255, 255, 0.61)"></use><use xlink:href="#SvgjsPath1523" x="210" y="330" stroke="rgba(255, 255, 255, 0.61)"></use><use xlink:href="#SvgjsPath1527" x="270" y="30" stroke="rgba(255, 255, 255, 0.61)"></use><use xlink:href="#SvgjsPath1523" x="270" y="90" stroke="rgba(255, 255, 255, 0.61)"></use><use xlink:href="#SvgjsPath1523" x="270" y="150" stroke="rgba(255, 255, 255, 0.61)"></use><use xlink:href="#SvgjsPath1526" x="270" y="210" stroke="rgba(255, 255, 255, 0.61)"></use><use xlink:href="#SvgjsPath1523" x="270" y="270" stroke="rgba(255, 255, 255, 0.61)"></use><use xlink:href="#SvgjsPath1524" x="270" y="330" stroke="rgba(255, 255, 255, 0.61)"></use><use xlink:href="#SvgjsPath1524" x="330" y="30" stroke="rgba(255, 255, 255, 0.61)"></use><use xlink:href="#SvgjsPath1524" x="330" y="90" stroke="rgba(255, 255, 255, 0.61)"></use><use xlink:href="#SvgjsPath1524" x="330" y="150" stroke="rgba(255, 255, 255, 0.61)"></use><use xlink:href="#SvgjsPath1523" x="330" y="210" stroke="rgba(255, 255, 255, 0.61)"></use><use xlink:href="#SvgjsPath1527" x="330" y="270" stroke="rgba(255, 255, 255, 0.61)"></use><use xlink:href="#SvgjsPath1528" x="330" y="330" stroke="rgba(255, 255, 255, 0.61)" stroke-width="3"></use><use xlink:href="#SvgjsPath1526" x="390" y="30" stroke="rgba(255, 255, 255, 0.61)"></use><use xlink:href="#SvgjsPath1525" x="390" y="90" stroke="rgba(255, 255, 255, 0.61)"></use><use xlink:href="#SvgjsPath1524" x="390" y="150" stroke="rgba(255, 255, 255, 0.61)"></use><use xlink:href="#SvgjsPath1527" x="390" y="210" stroke="rgba(255, 255, 255, 0.61)"></use><use xlink:href="#SvgjsPath1525" x="390" y="270" stroke="rgba(255, 255, 255, 0.61)"></use><use xlink:href="#SvgjsPath1524" x="390" y="330" stroke="rgba(255, 255, 255, 0.61)"></use><use xlink:href="#SvgjsPath1523" x="450" y="30" stroke="rgba(255, 255, 255, 0.61)"></use><use xlink:href="#SvgjsPath1526" x="450" y="90" stroke="rgba(255, 255, 255, 0.61)"></use><use xlink:href="#SvgjsPath1524" x="450" y="150" stroke="rgba(255, 255, 255, 0.61)"></use><use xlink:href="#SvgjsPath1523" x="450" y="210" stroke="rgba(255, 255, 255, 0.61)"></use><use xlink:href="#SvgjsPath1523" x="450" y="270" stroke="rgba(255, 255, 255, 0.61)"></use><use xlink:href="#SvgjsPath1528" x="450" y="330" stroke="rgba(255, 255, 255, 0.61)" stroke-width="3"></use><use xlink:href="#SvgjsPath1525" x="510" y="30" stroke="rgba(255, 255, 255, 0.61)"></use><use xlink:href="#SvgjsPath1524" x="510" y="90" stroke="rgba(255, 255, 255, 0.61)"></use><use xlink:href="#SvgjsPath1527" x="510" y="150" stroke="rgba(255, 255, 255, 0.61)"></use><use xlink:href="#SvgjsPath1524" x="510" y="210" stroke="rgba(255, 255, 255, 0.61)"></use><use xlink:href="#SvgjsPath1523" x="510" y="270" stroke="rgba(255, 255, 255, 0.61)"></use><use xlink:href="#SvgjsPath1524" x="510" y="330" stroke="rgba(255, 255, 255, 0.61)"></use><use xlink:href="#SvgjsPath1524" x="570" y="30" stroke="rgba(255, 255, 255, 0.61)"></use><use xlink:href="#SvgjsPath1526" x="570" y="90" stroke="rgba(255, 255, 255, 0.61)"></use><use xlink:href="#SvgjsPath1524" x="570" y="150" stroke="rgba(255, 255, 255, 0.61)"></use><use xlink:href="#SvgjsPath1523" x="570" y="210" stroke="rgba(255, 255, 255, 0.61)"></use><use xlink:href="#SvgjsPath1525" x="570" y="270" stroke="rgba(255, 255, 255, 0.61)"></use><use xlink:href="#SvgjsPath1525" x="570" y="330" stroke="rgba(255, 255, 255, 0.61)"></use><use xlink:href="#SvgjsPath1524" x="630" y="30" stroke="rgba(255, 255, 255, 0.61)"></use><use xlink:href="#SvgjsPath1527" x="630" y="90" stroke="rgba(255, 255, 255, 0.61)"></use><use xlink:href="#SvgjsPath1524" x="630" y="150" stroke="rgba(255, 255, 255, 0.61)"></use><use xlink:href="#SvgjsPath1523" x="630" y="210" stroke="rgba(255, 255, 255, 0.61)"></use><use xlink:href="#SvgjsPath1524" x="630" y="270" stroke="rgba(255, 255, 255, 0.61)"></use><use xlink:href="#SvgjsPath1527" x="630" y="330" stroke="rgba(255, 255, 255, 0.61)"></use><use xlink:href="#SvgjsPath1524" x="690" y="30" stroke="rgba(255, 255, 255, 0.61)"></use><use xlink:href="#SvgjsPath1525" x="690" y="90" stroke="rgba(255, 255, 255, 0.61)"></use><use xlink:href="#SvgjsPath1523" x="690" y="150" stroke="rgba(255, 255, 255, 0.61)"></use><use xlink:href="#SvgjsPath1526" x="690" y="210" stroke="rgba(255, 255, 255, 0.61)"></use><use xlink:href="#SvgjsPath1523" x="690" y="270" stroke="rgba(255, 255, 255, 0.61)"></use><use xlink:href="#SvgjsPath1523" x="690" y="330" stroke="rgba(255, 255, 255, 0.61)"></use></g><defs><mask id="SvgjsMask1522"><rect width="720" height="360" fill="#ffffff"></rect></mask><path d="M-1 0 a1 1 0 1 0 2 0 a1 1 0 1 0 -2 0z" id="SvgjsPath1525"></path><path d="M-3 0 a3 3 0 1 0 6 0 a3 3 0 1 0 -6 0z" id="SvgjsPath1527"></path><path d="M-5 0 a5 5 0 1 0 10 0 a5 5 0 1 0 -10 0z" id="SvgjsPath1523"></path><path d="M2 -2 L-2 2z" id="SvgjsPath1526"></path><path d="M6 -6 L-6 6z" id="SvgjsPath1524"></path><path d="M30 -30 L-30 30z" id="SvgjsPath1528"></path></defs></svg>