<svg xmlns="http://www.w3.org/2000/svg" version="1.1" xmlns:xlink="http://www.w3.org/1999/xlink" xmlns:svgjs="http://svgjs.com/svgjs" width="1080" height="720" preserveAspectRatio="none" viewBox="0 0 1080 720"><g mask="url(&quot;#SvgjsMask1641&quot;)" fill="none"><use xlink:href="#SvgjsSymbol1648" x="0" y="0"></use><use xlink:href="#SvgjsSymbol1648" x="720" y="0"></use></g><defs><mask id="SvgjsMask1641"><rect width="1080" height="720" fill="#ffffff"></rect></mask><path d="M-1 0 a1 1 0 1 0 2 0 a1 1 0 1 0 -2 0z" id="SvgjsPath1645"></path><path d="M-3 0 a3 3 0 1 0 6 0 a3 3 0 1 0 -6 0z" id="SvgjsPath1644"></path><path d="M-5 0 a5 5 0 1 0 10 0 a5 5 0 1 0 -10 0z" id="SvgjsPath1643"></path><path d="M2 -2 L-2 2z" id="SvgjsPath1646"></path><path d="M6 -6 L-6 6z" id="SvgjsPath1642"></path><path d="M30 -30 L-30 30z" id="SvgjsPath1647"></path></defs><symbol id="SvgjsSymbol1648"><use xlink:href="#SvgjsPath1642" x="30" y="30" stroke="rgba(0, 0, 0, 1)"></use><use xlink:href="#SvgjsPath1642" x="30" y="90" stroke="rgba(255, 255, 255, 1)"></use><use xlink:href="#SvgjsPath1642" x="30" y="150" stroke="rgba(0, 255, 0, 1)"></use><use xlink:href="#SvgjsPath1642" x="30" y="210" stroke="rgba(148, 0, 211, 1)"></use><use xlink:href="#SvgjsPath1643" x="30" y="270" stroke="rgba(148, 0, 211, 1)"></use><use xlink:href="#SvgjsPath1643" x="30" y="330" stroke="rgba(255, 0, 0, 1)"></use><use xlink:href="#SvgjsPath1644" x="30" y="390" stroke="rgba(0, 0, 0, 1)"></use><use xlink:href="#SvgjsPath1643" x="30" y="450" stroke="rgba(0, 255, 0, 1)"></use><use xlink:href="#SvgjsPath1642" x="30" y="510" stroke="rgba(0, 0, 0, 1)"></use><use xlink:href="#SvgjsPath1642" x="30" y="570" stroke="rgba(255, 255, 255, 1)"></use><use xlink:href="#SvgjsPath1644" x="30" y="630" stroke="rgba(0, 0, 0, 1)"></use><use xlink:href="#SvgjsPath1642" x="30" y="690" stroke="rgba(255, 255, 255, 1)"></use><use xlink:href="#SvgjsPath1642" x="90" y="30" stroke="rgba(255, 0, 0, 1)"></use><use xlink:href="#SvgjsPath1643" x="90" y="90" stroke="rgba(0, 0, 255, 1)"></use><use xlink:href="#SvgjsPath1643" x="90" y="150" stroke="rgba(255, 0, 0, 1)"></use><use xlink:href="#SvgjsPath1643" x="90" y="210" stroke="rgba(255, 127, 0, 1)"></use><use xlink:href="#SvgjsPath1643" x="90" y="270" stroke="rgba(75, 0, 130, 1)"></use><use xlink:href="#SvgjsPath1645" x="90" y="330" stroke="rgba(255, 127, 0, 1)"></use><use xlink:href="#SvgjsPath1642" x="90" y="390" stroke="rgba(0, 255, 0, 1)"></use><use xlink:href="#SvgjsPath1642" x="90" y="450" stroke="rgba(0, 255, 0, 1)"></use><use xlink:href="#SvgjsPath1644" x="90" y="510" stroke="rgba(148, 0, 211, 1)"></use><use xlink:href="#SvgjsPath1643" x="90" y="570" stroke="rgba(255, 255, 255, 1)"></use><use xlink:href="#SvgjsPath1644" x="90" y="630" stroke="rgba(255, 0, 0, 1)"></use><use xlink:href="#SvgjsPath1644" x="90" y="690" stroke="rgba(255, 127, 0, 1)"></use><use xlink:href="#SvgjsPath1646" x="150" y="30" stroke="rgba(255, 255, 255, 1)"></use><use xlink:href="#SvgjsPath1642" x="150" y="90" stroke="rgba(0, 0, 0, 1)"></use><use xlink:href="#SvgjsPath1644" x="150" y="150" stroke="rgba(148, 0, 211, 1)"></use><use xlink:href="#SvgjsPath1646" x="150" y="210" stroke="rgba(0, 0, 0, 1)"></use><use xlink:href="#SvgjsPath1644" x="150" y="270" stroke="rgba(0, 0, 255, 1)"></use><use xlink:href="#SvgjsPath1645" x="150" y="330" stroke="rgba(255, 0, 0, 1)"></use><use xlink:href="#SvgjsPath1646" x="150" y="390" stroke="rgba(0, 0, 255, 1)"></use><use xlink:href="#SvgjsPath1643" x="150" y="450" stroke="rgba(255, 255, 0, 1)"></use><use xlink:href="#SvgjsPath1643" x="150" y="510" stroke="rgba(0, 0, 0, 1)"></use><use xlink:href="#SvgjsPath1647" x="150" y="570" stroke="rgba(255, 127, 0, 1)" stroke-width="3"></use><use xlink:href="#SvgjsPath1642" x="150" y="630" stroke="rgba(75, 0, 130, 1)"></use><use xlink:href="#SvgjsPath1643" x="150" y="690" stroke="rgba(148, 0, 211, 1)"></use><use xlink:href="#SvgjsPath1646" x="210" y="30" stroke="rgba(0, 255, 0, 1)"></use><use xlink:href="#SvgjsPath1646" x="210" y="90" stroke="rgba(0, 0, 0, 1)"></use><use xlink:href="#SvgjsPath1646" x="210" y="150" stroke="rgba(255, 0, 0, 1)"></use><use xlink:href="#SvgjsPath1642" x="210" y="210" stroke="rgba(255, 0, 0, 1)"></use><use xlink:href="#SvgjsPath1642" x="210" y="270" stroke="rgba(75, 0, 130, 1)"></use><use xlink:href="#SvgjsPath1643" x="210" y="330" stroke="rgba(0, 0, 0, 1)"></use><use xlink:href="#SvgjsPath1643" x="210" y="390" stroke="rgba(255, 255, 0, 1)"></use><use xlink:href="#SvgjsPath1643" x="210" y="450" stroke="rgba(255, 0, 0, 1)"></use><use xlink:href="#SvgjsPath1644" x="210" y="510" stroke="rgba(255, 255, 0, 1)"></use><use xlink:href="#SvgjsPath1642" x="210" y="570" stroke="rgba(75, 0, 130, 1)"></use><use xlink:href="#SvgjsPath1646" x="210" y="630" stroke="rgba(0, 255, 0, 1)"></use><use xlink:href="#SvgjsPath1643" x="210" y="690" stroke="rgba(75, 0, 130, 1)"></use><use xlink:href="#SvgjsPath1642" x="270" y="30" stroke="rgba(0, 0, 0, 1)"></use><use xlink:href="#SvgjsPath1647" x="270" y="90" stroke="rgba(0, 255, 0, 1)" stroke-width="3"></use><use xlink:href="#SvgjsPath1646" x="270" y="150" stroke="rgba(255, 0, 0, 1)"></use><use xlink:href="#SvgjsPath1644" x="270" y="210" stroke="rgba(255, 255, 0, 1)"></use><use xlink:href="#SvgjsPath1643" x="270" y="270" stroke="rgba(255, 127, 0, 1)"></use><use xlink:href="#SvgjsPath1647" x="270" y="330" stroke="rgba(0, 0, 0, 1)" stroke-width="3"></use><use xlink:href="#SvgjsPath1642" x="270" y="390" stroke="rgba(148, 0, 211, 1)"></use><use xlink:href="#SvgjsPath1646" x="270" y="450" stroke="rgba(0, 0, 255, 1)"></use><use xlink:href="#SvgjsPath1644" x="270" y="510" stroke="rgba(255, 127, 0, 1)"></use><use xlink:href="#SvgjsPath1645" x="270" y="570" stroke="rgba(0, 0, 255, 1)"></use><use xlink:href="#SvgjsPath1644" x="270" y="630" stroke="rgba(255, 255, 0, 1)"></use><use xlink:href="#SvgjsPath1642" x="270" y="690" stroke="rgba(0, 0, 255, 1)"></use><use xlink:href="#SvgjsPath1642" x="330" y="30" stroke="rgba(148, 0, 211, 1)"></use><use xlink:href="#SvgjsPath1646" x="330" y="90" stroke="rgba(255, 0, 0, 1)"></use><use xlink:href="#SvgjsPath1643" x="330" y="150" stroke="rgba(255, 255, 255, 1)"></use><use xlink:href="#SvgjsPath1642" x="330" y="210" stroke="rgba(148, 0, 211, 1)"></use><use xlink:href="#SvgjsPath1642" x="330" y="270" stroke="rgba(255, 0, 0, 1)"></use><use xlink:href="#SvgjsPath1643" x="330" y="330" stroke="rgba(0, 0, 255, 1)"></use><use xlink:href="#SvgjsPath1643" x="330" y="390" stroke="rgba(255, 255, 255, 1)"></use><use xlink:href="#SvgjsPath1645" x="330" y="450" stroke="rgba(255, 255, 255, 1)"></use><use xlink:href="#SvgjsPath1642" x="330" y="510" stroke="rgba(255, 0, 0, 1)"></use><use xlink:href="#SvgjsPath1643" x="330" y="570" stroke="rgba(255, 255, 0, 1)"></use><use xlink:href="#SvgjsPath1642" x="330" y="630" stroke="rgba(255, 255, 255, 1)"></use><use xlink:href="#SvgjsPath1643" x="330" y="690" stroke="rgba(0, 0, 0, 1)"></use><use xlink:href="#SvgjsPath1643" x="390" y="30" stroke="rgba(0, 0, 0, 1)"></use><use xlink:href="#SvgjsPath1643" x="390" y="90" stroke="rgba(148, 0, 211, 1)"></use><use xlink:href="#SvgjsPath1645" x="390" y="150" stroke="rgba(255, 0, 0, 1)"></use><use xlink:href="#SvgjsPath1643" x="390" y="210" stroke="rgba(255, 255, 255, 1)"></use><use xlink:href="#SvgjsPath1646" x="390" y="270" stroke="rgba(0, 0, 0, 1)"></use><use xlink:href="#SvgjsPath1643" x="390" y="330" stroke="rgba(75, 0, 130, 1)"></use><use xlink:href="#SvgjsPath1644" x="390" y="390" stroke="rgba(255, 255, 255, 1)"></use><use xlink:href="#SvgjsPath1642" x="390" y="450" stroke="rgba(75, 0, 130, 1)"></use><use xlink:href="#SvgjsPath1643" x="390" y="510" stroke="rgba(148, 0, 211, 1)"></use><use xlink:href="#SvgjsPath1642" x="390" y="570" stroke="rgba(0, 0, 255, 1)"></use><use xlink:href="#SvgjsPath1646" x="390" y="630" stroke="rgba(255, 255, 0, 1)"></use><use xlink:href="#SvgjsPath1647" x="390" y="690" stroke="rgba(148, 0, 211, 1)" stroke-width="3"></use><use xlink:href="#SvgjsPath1642" x="450" y="30" stroke="rgba(255, 255, 255, 1)"></use><use xlink:href="#SvgjsPath1646" x="450" y="90" stroke="rgba(255, 127, 0, 1)"></use><use xlink:href="#SvgjsPath1645" x="450" y="150" stroke="rgba(255, 255, 0, 1)"></use><use xlink:href="#SvgjsPath1642" x="450" y="210" stroke="rgba(255, 255, 255, 1)"></use><use xlink:href="#SvgjsPath1643" x="450" y="270" stroke="rgba(148, 0, 211, 1)"></use><use xlink:href="#SvgjsPath1645" x="450" y="330" stroke="rgba(0, 0, 255, 1)"></use><use xlink:href="#SvgjsPath1646" x="450" y="390" stroke="rgba(148, 0, 211, 1)"></use><use xlink:href="#SvgjsPath1642" x="450" y="450" stroke="rgba(0, 0, 0, 1)"></use><use xlink:href="#SvgjsPath1644" x="450" y="510" stroke="rgba(0, 0, 255, 1)"></use><use xlink:href="#SvgjsPath1643" x="450" y="570" stroke="rgba(75, 0, 130, 1)"></use><use xlink:href="#SvgjsPath1643" x="450" y="630" stroke="rgba(255, 0, 0, 1)"></use><use xlink:href="#SvgjsPath1646" x="450" y="690" stroke="rgba(75, 0, 130, 1)"></use><use xlink:href="#SvgjsPath1647" x="510" y="30" stroke="rgba(255, 255, 0, 1)" stroke-width="3"></use><use xlink:href="#SvgjsPath1643" x="510" y="90" stroke="rgba(0, 0, 255, 1)"></use><use xlink:href="#SvgjsPath1644" x="510" y="150" stroke="rgba(0, 0, 255, 1)"></use><use xlink:href="#SvgjsPath1642" x="510" y="210" stroke="rgba(75, 0, 130, 1)"></use><use xlink:href="#SvgjsPath1645" x="510" y="270" stroke="rgba(255, 0, 0, 1)"></use><use xlink:href="#SvgjsPath1643" x="510" y="330" stroke="rgba(0, 0, 255, 1)"></use><use xlink:href="#SvgjsPath1645" x="510" y="390" stroke="rgba(0, 255, 0, 1)"></use><use xlink:href="#SvgjsPath1644" x="510" y="450" stroke="rgba(255, 0, 0, 1)"></use><use xlink:href="#SvgjsPath1645" x="510" y="510" stroke="rgba(75, 0, 130, 1)"></use><use xlink:href="#SvgjsPath1643" x="510" y="570" stroke="rgba(255, 255, 255, 1)"></use><use xlink:href="#SvgjsPath1642" x="510" y="630" stroke="rgba(255, 255, 255, 1)"></use><use xlink:href="#SvgjsPath1646" x="510" y="690" stroke="rgba(255, 255, 255, 1)"></use><use xlink:href="#SvgjsPath1644" x="570" y="30" stroke="rgba(255, 255, 255, 1)"></use><use xlink:href="#SvgjsPath1642" x="570" y="90" stroke="rgba(75, 0, 130, 1)"></use><use xlink:href="#SvgjsPath1643" x="570" y="150" stroke="rgba(0, 0, 255, 1)"></use><use xlink:href="#SvgjsPath1642" x="570" y="210" stroke="rgba(0, 0, 0, 1)"></use><use xlink:href="#SvgjsPath1647" x="570" y="270" stroke="rgba(148, 0, 211, 1)" stroke-width="3"></use><use xlink:href="#SvgjsPath1643" x="570" y="330" stroke="rgba(255, 255, 0, 1)"></use><use xlink:href="#SvgjsPath1642" x="570" y="390" stroke="rgba(0, 0, 255, 1)"></use><use xlink:href="#SvgjsPath1642" x="570" y="450" stroke="rgba(255, 255, 255, 1)"></use><use xlink:href="#SvgjsPath1645" x="570" y="510" stroke="rgba(0, 255, 0, 1)"></use><use xlink:href="#SvgjsPath1645" x="570" y="570" stroke="rgba(255, 127, 0, 1)"></use><use xlink:href="#SvgjsPath1643" x="570" y="630" stroke="rgba(0, 0, 255, 1)"></use><use xlink:href="#SvgjsPath1642" x="570" y="690" stroke="rgba(148, 0, 211, 1)"></use><use xlink:href="#SvgjsPath1643" x="630" y="30" stroke="rgba(0, 255, 0, 1)"></use><use xlink:href="#SvgjsPath1642" x="630" y="90" stroke="rgba(0, 0, 255, 1)"></use><use xlink:href="#SvgjsPath1643" x="630" y="150" stroke="rgba(255, 127, 0, 1)"></use><use xlink:href="#SvgjsPath1643" x="630" y="210" stroke="rgba(255, 255, 255, 1)"></use><use xlink:href="#SvgjsPath1643" x="630" y="270" stroke="rgba(0, 0, 255, 1)"></use><use xlink:href="#SvgjsPath1643" x="630" y="330" stroke="rgba(255, 255, 0, 1)"></use><use xlink:href="#SvgjsPath1642" x="630" y="390" stroke="rgba(255, 0, 0, 1)"></use><use xlink:href="#SvgjsPath1647" x="630" y="450" stroke="rgba(0, 255, 0, 1)" stroke-width="3"></use><use xlink:href="#SvgjsPath1643" x="630" y="510" stroke="rgba(0, 0, 0, 1)"></use><use xlink:href="#SvgjsPath1643" x="630" y="570" stroke="rgba(255, 255, 0, 1)"></use><use xlink:href="#SvgjsPath1643" x="630" y="630" stroke="rgba(75, 0, 130, 1)"></use><use xlink:href="#SvgjsPath1646" x="630" y="690" stroke="rgba(255, 255, 255, 1)"></use><use xlink:href="#SvgjsPath1647" x="690" y="30" stroke="rgba(0, 0, 0, 1)" stroke-width="3"></use><use xlink:href="#SvgjsPath1647" x="690" y="90" stroke="rgba(255, 255, 255, 1)" stroke-width="3"></use><use xlink:href="#SvgjsPath1646" x="690" y="150" stroke="rgba(255, 255, 0, 1)"></use><use xlink:href="#SvgjsPath1647" x="690" y="210" stroke="rgba(255, 255, 0, 1)" stroke-width="3"></use><use xlink:href="#SvgjsPath1646" x="690" y="270" stroke="rgba(255, 127, 0, 1)"></use><use xlink:href="#SvgjsPath1646" x="690" y="330" stroke="rgba(75, 0, 130, 1)"></use><use xlink:href="#SvgjsPath1642" x="690" y="390" stroke="rgba(255, 255, 0, 1)"></use><use xlink:href="#SvgjsPath1645" x="690" y="450" stroke="rgba(0, 0, 0, 1)"></use><use xlink:href="#SvgjsPath1642" x="690" y="510" stroke="rgba(255, 255, 0, 1)"></use><use xlink:href="#SvgjsPath1644" x="690" y="570" stroke="rgba(75, 0, 130, 1)"></use><use xlink:href="#SvgjsPath1643" x="690" y="630" stroke="rgba(0, 0, 255, 1)"></use><use xlink:href="#SvgjsPath1643" x="690" y="690" stroke="rgba(255, 255, 255, 1)"></use></symbol></svg>