<svg xmlns="http://www.w3.org/2000/svg" version="1.1" xmlns:xlink="http://www.w3.org/1999/xlink" xmlns:svgjs="http://svgjs.com/svgjs" width="1080" height="460" preserveAspectRatio="none" viewBox="0 0 1080 460"><g mask="url(&quot;#SvgjsMask2545&quot;)" fill="none"><rect width="1080" height="460" x="0" y="0" fill="rgba(0, 35, 156, 1)"></rect><use xlink:href="#SvgjsG2581" transform="translate(0, 0)" fill="rgba(255, 255, 255, 1)"></use><use xlink:href="#SvgjsG2581" transform="translate(615, 0)" fill="rgba(255, 255, 255, 1)"></use></g><defs><mask id="SvgjsMask2545"><rect width="1080" height="460" fill="#ffffff"></rect></mask><g id="SvgjsG2574"><path d="M7.713 15.485C3.459 15.485 0 12.025 0 7.768 0 3.513 3.459 0.051 7.713 0.051S15.432 3.513 15.432 7.768c0 4.257-3.465 7.716-7.719 7.717z m0-1.91c3.201 0 5.81-2.604 5.81-5.809 0-3.199-2.61-5.807-5.81-5.807-3.202 0-5.804 2.609-5.804 5.807-0.001 3.206 2.602 5.809 5.804 5.809z"></path><path d="M7.753 8.787a0.574 0.574 0 0 1-0.554-0.042 0.578 0.578 0 0 1-0.259-0.399L6.931 3.862a0.58 0.58 0 0 1 1.162 0v3.478l2.975-1.4a0.578 0.578 0 0 1 0.773 0.275c0.138 0.292 0.011 0.637-0.276 0.774l-3.81 1.798z"></path></g><g><path d="M2.115 12.192a1.05 1.05 0 1 1 0-2.1 1.05 1.05 0 0 1 0 2.1zM0 16V13.942c0-0.742 0.61-1.344 1.352-1.344h1.45c0.743 0 1.406 0.603 1.406 1.345V16H0z m13-3.897a1.051 1.051 0 0 0 1.05-1.05 1.05 1.05 0 0 0-2.099 0 1.05 1.05 0 0 0 1.051 1.049zM15.114 16V13.942c0-0.742-0.61-1.344-1.353-1.344h-1.448c-0.744 0-1.406 0.603-1.407 1.345V16h4.208z"></path><path d="M6.494 11.133a1.062 1.053 0 1 0 2.124 0 1.062 1.053 0 1 0-2.124 0"></path><path d="M4.998 16l0.836-2.277c0.335-1.163 1.31-1.128 1.309-1.127h0.828s0.974-0.036 1.309 1.127L10.116 16h-5.118z m2.558-7.25v-2.491l-0.414-0.414v2.49H0.885V0.414h6.257V4.483l0.414 0.414V0H0.474v8.75h7.082z m5.44-4.548a1.049 1.049 0 0 1-1.048-1.048c0-0.579 0.47-1.049 1.048-1.049a1.047 1.047 0 0 1 1.047 1.048 1.046 1.046 0 0 1-1.048 1.048z"></path><path d="M8.329 6.958a0.441 0.441 0 0 0 0.442 0.442h1.454c0.165 0 0.382-0.066 0.474-0.205 0.314-0.464 0.643-0.953 0.741-1.1v2.749h3.661V6.025c0-0.737-0.576-1.401-1.256-1.4 0.002 0.346 0 0.118 0-0.015H12.082a1.343 1.343 0 0 0-1.119 0.599l-0.871 1.313-1.32-0.001L6.907 4.656a0.179 0.179 0 0 0-0.254 0 0.18 0.18 0 0 0 0 0.254l1.774 1.775c-0.038 0.063-0.098 0.192-0.097 0.273z"></path></g><g id="SvgjsG2548"><path d="M10.596 3.917a0.64 0.64 0 0 0-0.639 0.641c0 0.354 0.287 0.64 0.639 0.64a0.639 0.639 0 0 0 0.639-0.64 0.639 0.639 0 0 0-0.639-0.641z m-0.151 5.25a0.642 0.642 0 0 0 0.643 0.641c0.352 0 0.638-0.286 0.637-0.64a0.639 0.639 0 0 0-0.637-0.641 0.641 0.641 0 0 0-0.642 0.641z m-4.678-5.945a0.641 0.641 0 0 0 0 1.282 0.64 0.64 0 0 0 0.642-0.64 0.641 0.641 0 0 0-0.642-0.642z"></path><path d="M8.659 0C5.904 0 3.363 2.068 2.835 4.347c-0.119 0.507-0.25 1.83-0.25 1.829L1.316 9.37A0.488 0.488 0 0 0 1.28 9.561a0.491 0.491 0 0 0 0.491 0.489h0.814v1.697c0 1.323 1.072 2.395 2.394 2.395h0.951V16H12.408V10.847c1.413-1.111 2.32-2.838 2.32-4.775C14.728 2.718 12.01 0 8.659 0z m-4.583 7.387c-0.372 0-0.675-0.304-0.675-0.679a0.677 0.677 0 0 1 0.675-0.677c0.375 0 0.68 0.303 0.68 0.677a0.68 0.68 0 0 1-0.68 0.679z m8.959-0.918l-0.631 0.632-0.77-0.543c-0.148 0.077-0.304 0.139-0.467 0.18l-0.142 0.838h0.294l0.079 0.448c0.031 0.008 0.062 0.013 0.092 0.024 0.079 0.029 0.152 0.067 0.22 0.11l0.355-0.25 0.292 0.291-0.262 0.371c0.056 0.1 0.101 0.206 0.125 0.318l0.429 0.074v0.412l-0.446 0.076c-0.009 0.032-0.013 0.063-0.024 0.094a1.147 1.147 0 0 1-0.112 0.223l0.251 0.353-0.292 0.291-0.369-0.262a1.149 1.149 0 0 1-0.318 0.126l-0.075 0.429H10.851l-0.074-0.448c-0.032-0.009-0.064-0.013-0.096-0.025a1.174 1.174 0 0 1-0.221-0.11l-0.356 0.252L9.815 10.08l0.262-0.37a1.151 1.151 0 0 1-0.125-0.319l-0.431-0.074v-0.411l0.45-0.077c0.008-0.032 0.013-0.063 0.025-0.094 0.029-0.079 0.066-0.152 0.109-0.22l-0.251-0.356 0.291-0.291 0.371 0.262a1.174 1.174 0 0 1 0.317-0.125l0.064-0.372h-0.776L9.96 6.704c-0.035-0.011-0.07-0.02-0.104-0.034a2.221 2.221 0 0 1-0.352-0.168l-0.744 0.524-0.63-0.632 0.542-0.767a2.184 2.184 0 0 1-0.181-0.469l-0.894-0.154V4.27l-0.449 0.078c-0.007 0.022-0.009 0.044-0.017 0.065a1.402 1.402 0 0 1-0.109 0.223l0.345 0.489-0.416 0.414-0.506-0.357a1.438 1.438 0 0 1-0.294 0.116l-0.102 0.586-0.584 0-0.106-0.611c-0.02-0.007-0.042-0.009-0.062-0.017a1.43 1.43 0 0 1-0.226-0.11l-0.49 0.345-0.414-0.415 0.359-0.508a1.485 1.485 0 0 1-0.112-0.291L3.824 4.176V3.589l0.608-0.105c0.007-0.022 0.012-0.043 0.02-0.063 0.029-0.08 0.068-0.154 0.109-0.225l-0.345-0.488 0.413-0.415 0.508 0.358a1.439 1.439 0 0 1 0.295-0.117l0.102-0.586h0.584L6.224 2.56c0.021 0.007 0.043 0.008 0.063 0.016 0.08 0.03 0.154 0.069 0.225 0.11l0.489-0.344 0.415 0.414-0.359 0.507a1.397 1.397 0 0 1 0.115 0.293l0.586 0.101v0.427l0.768-0.132c0.011-0.035 0.02-0.07 0.033-0.105 0.046-0.126 0.104-0.243 0.17-0.355l-0.528-0.74 0.634-0.633 0.77 0.544a2.192 2.192 0 0 1 0.468-0.181l0.151-0.894h0.894l0.162 0.928c0.035 0.01 0.069 0.02 0.104 0.033 0.124 0.046 0.241 0.104 0.352 0.168l0.743-0.523 0.629 0.631-0.542 0.77c0.077 0.148 0.138 0.304 0.18 0.466l0.895 0.154v0.894l-0.929 0.16c-0.011 0.035-0.02 0.07-0.032 0.104-0.046 0.125-0.104 0.242-0.17 0.353l0.525 0.743z"></path></g><g id="SvgjsG2572"><path d="M6.633 1.305a1.305 1.305 0 1 0 2.611 0 1.305 1.305 0 1 0-2.611 0"></path><path d="M6.396 15.268a0.732 0.732 0 0 0 1.464 0l0-6.14h0.326l-0.002 6.14a0.732 0.732 0 0 0 1.464 0l0.003-10.585h0.321v3.901c0 0.785 1.024 0.785 1.021 0v-3.984c0-0.867-0.509-1.716-1.524-1.717l-2.926-0.001C5.619 2.882 5.04 3.636 5.04 4.576v4.008c0 0.779 1.029 0.779 1.029 0V4.683H6.397l-0.001 10.585z"></path></g><g id="SvgjsG2552"><path d="M7.493 4.681c1.279 0 2.312-1.051 2.312-2.343C9.805 1.045 8.772 0 7.493 0S5.18 1.045 5.18 2.338c0 1.291 1.034 2.342 2.313 2.343z m2.249 0.569c1.058 0.038 1.503 0.894 1.503 0.895l3.415 4.737a1.331 1.331 0 0 1 0.224 0.745c0 0.737-0.59 1.335-1.319 1.334-0.174 0-0.333-0.039-0.484-0.096l-2.061-0.582v2.079H3.864V12.283l-2.061 0.581a1.308 1.308 0 0 1-0.485 0.097C0.589 12.962 0 12.363 0 11.626c0-0.278 0.082-0.535 0.229-0.745l3.413-4.736s0.448-0.857 1.501-0.895H9.742zM7.443 12.91l2.67-0.897-0.058-0.012c-1.844-0.547-1.127-3.009 0.712-2.459l0.253 0.089v-2.779l-3.577 1.18-3.579-1.18V9.63l0.252-0.089c1.843-0.55 2.561 1.913 0.717 2.459l-0.06 0.013 2.67 0.897zM14.793 16c0.183 0 0.33-0.148 0.33-0.333a0.33 0.33 0 0 0-0.33-0.333H0.352c-0.179 0-0.329 0.147-0.329 0.333 0 0.185 0.15 0.333 0.329 0.333h14.441z"></path></g><g id="SvgjsG2567"><path d="M9.501 6.42V2.948h1.2c0.499 0 0.585 0.328 0.648 0.392 0.186 0.18 0.311 0.288 0.575 0.288h1.33V0.679h-1.33c-0.264 0-0.39-0.108-0.576-0.291C11.286 0.332 11.201 0 10.701 0h-1.833v6.012l-0.839-0.547L0.64 10.235h1.732V16H6.566V11.422h2.915V16h4.197V10.235H15.403L9.501 6.42z"></path></g><g id="SvgjsG2562"><path d="M3.044 12.188V8.93c0-2.836 2.475-5.244 5.463-5.245 3.022-0.004 5.465 2.352 5.465 5.245v3.258h1.351V8.93C15.332 5.276 12.27 2.325 8.51 2.325 4.777 2.325 1.689 5.333 1.689 8.93v3.258h1.355z"></path><path d="M5.463 14.702l-1.781 0.006V9.593h1.785c0.921 2.372 0 5.111 0 5.111m6.049-5.109H13.298V14.702l-1.783 0.006c-0.921-2.373 0-5.113 0-5.113"></path></g><g id="SvgjsG2568"><path d="M13.031 12.687V1.875H9.957L9.97 0.071C9.957 0.078 4.189 2.651 4.189 2.651 3.256 3.097 2.919 3.747 2.919 4.632V13.347c0 1.389 1.116 2.528 2.401 2.528h7.737V14.275c-0.948-0.116-0.948-1.469-0.026-1.588z m-7.749 1.422c-0.848-0.005-0.844-1.194 0-1.194h5.399c-0.375 0.278-0.351 0.936 0.051 1.195H5.282z m6.021-2.884H6.577l3.38-1.524V3.628h1.347v7.597h-0.001z" fill-rule="evenodd"></path></g><g id="SvgjsG2547"><path d="M7.45 12.652S6.4 11.121 3.725 11.121C1.274 11.121 0 11.833 0 11.833V1.937s1.274-0.712 3.725-0.729C6.4 1.19 7.45 2.756 7.45 2.756V12.652z m1.087 0s1.05-1.531 3.725-1.531c2.451 0 3.725 0.712 3.725 0.713V1.937s-1.274-0.712-3.725-0.729c-2.675-0.017-3.725 1.548-3.725 1.548v9.896z"></path><path d="M8.012 15.733S6.4 13.411 3.725 13.411c-2.451 0-3.725 0.712-3.725 0.712v-1.186s1.274-0.712 3.725-0.729c2.675-0.018 4.287 2.34 4.287 2.34V15.733z m0 0s1.612-2.323 4.287-2.323c2.451 0 3.725 0.712 3.725 0.712v-1.185s-1.274-0.712-3.725-0.729c-2.675-0.019-4.287 2.339-4.287 2.339v1.185z"></path></g><g id="SvgjsG2575"><path d="M11.974 14.95h-0.243c-0.142-0.162-0.195-0.364-0.152-0.614 0.071-0.413 0.364-0.754 0.504-0.803l-0.002-0.005a0.525 0.525 0 0 0 0.346-0.491l0.01-10.776c0-0.289-0.234-0.525-0.517-0.527 0 0-2.157-0.002-2.749-0.006l0.003-1.204c0-0.213-0.123-0.403-0.318-0.485a0.517 0.517 0 0 0-0.564 0.11L4.684 3.773C4.051 4.41 3.55 5.613 3.549 6.518L3.52 14.057c-0.002 1.054 0.844 1.918 1.892 1.923l6.56 0.02c0.285 0 0.518-0.235 0.518-0.521v-0.002c0-0.291-0.229-0.525-0.516-0.526M11.398 2.784c0 0.899-0.008 8.829-0.01 9.73h-5.912l3.702-3.137-0.007-6.597c0.336 0.002 1.916 0.004 2.227 0.004M4.557 14.06s0.002-0.434 0.002-0.498H10.75c-0.089 0.19-0.16 0.391-0.194 0.594-0.049 0.28-0.024 0.542 0.038 0.79l-5.179-0.016c-0.474 0-0.858-0.389-0.858-0.87"></path></g><g id="SvgjsG2563"><path d="M7.996 3.995c-1.111 0-2.014-0.895-2.014-1.998C5.982 0.894 6.884 0 7.996 0c1.112 0 2.013 0.894 2.013 1.997 0 1.103-0.902 1.998-2.013 1.998zM14.03 12.267l-1.585-5.521C11.811 4.539 9.964 4.607 9.964 4.607H6.027s-1.847-0.069-2.48 2.138L1.961 12.267c-0.151 0.516 0.133 0.91 0.584 1.04 0.45 0.129 0.911-0.098 1.03-0.511l1.541-5.382 0.753-0.001L3.405 16H12.586L10.122 7.413l0.752 0.001 1.542 5.382c0.118 0.413 0.579 0.64 1.03 0.511 0.451-0.129 0.736-0.523 0.584-1.04z" fill-rule="evenodd"></path></g><g id="SvgjsG2553"><path d="M14.885 8.725h-1.479v5.687c0.01 1.007 1.48 1.007 1.479 0V8.725z m-1.69 0h-1.479v5.687c0.006 1 1.476 1 1.479 0V8.725z m-3.593 0h-1.479v5.687c0.009 1.007 1.48 1.007 1.479 0V8.725z m-1.691 0h-1.479v5.687c0.006 1 1.477 1 1.479 0V8.725z m-3.592 0h-1.479v5.687c0.009 1.007 1.48 1.007 1.479 0V8.725z m-1.69 0h-1.479v5.687c0.005 1 1.477 1 1.479 0V8.725z"></path><path d="M15.828 8.303a0.57 0.57 0 0 1-0.578 0.577s-3.866 0.005-3.88 0a0.576 0.576 0 0 1-0.576-0.577V4.096a0.793 0.793 0 0 1 0.806-0.807c-0.005-0.005 3.419 0 3.418 0a0.792 0.792 0 0 1 0.808 0.807v4.206h0.001zM13.329 2.944c0.606 0 1.099-0.494 1.095-1.096A1.1 1.1 0 0 0 13.329 0.734a1.119 1.119 0 0 0-1.114 1.114 1.113 1.113 0 0 0 1.114 1.096z m-2.785 5.359a0.567 0.567 0 0 1-0.576 0.577s-3.866 0.005-3.881 0a0.576 0.576 0 0 1-0.576-0.577V4.096a0.794 0.794 0 0 1 0.807-0.807c-0.005-0.005 3.419 0 3.419 0a0.791 0.791 0 0 1 0.807 0.807v4.206zM8.047 2.944c0.605 0 1.099-0.494 1.094-1.096A1.1 1.1 0 0 0 8.047 0.734a1.12 1.12 0 0 0-1.115 1.114 1.114 1.114 0 0 0 1.114 1.096z m-2.787 5.359a0.568 0.568 0 0 1-0.576 0.577s-3.866 0.005-3.88 0a0.576 0.576 0 0 1-0.576-0.577V4.096a0.793 0.793 0 0 1 0.807-0.808c-0.005-0.005 3.42 0 3.419 0a0.791 0.791 0 0 1 0.807 0.807v4.207zM2.763 2.944c0.606 0 1.1-0.494 1.096-1.096A1.1 1.1 0 0 0 2.763 0.734a1.118 1.118 0 0 0-1.113 1.114A1.112 1.112 0 0 0 2.763 2.944z"></path></g><g id="SvgjsG2569"><path d="M0.778 8.111a7.222 7.222 0 1 0 14.444 0 7.222 7.222 0 1 0-14.444 0"></path></g><g id="SvgjsG2560"><path d="M2.133 2.133h11.734v11.734H2.133z"></path></g><g id="SvgjsG2555"><path d="M0.031 14.203L8 0.4l7.969 13.803z"></path></g><g id="SvgjsG2546"><path d="M0.267 14.413h15.466V16H0.267z m0.632-1.535h13.998v0.872H0.899z m1.139-7.74h2.352v7.056h-2.352z m4.693 0h2.352v7.056h-2.352z m4.513 0h2.352v7.056H11.244zM0 3.595L8 0l8 3.595-0.007 0.927L0 4.535z"></path></g><g id="SvgjsG2579"><path d="M13.165 5.485L5.295 15.96l1.814-7.368-4.222 0.071L9.733 0 7.677 5.489l5.488-0.004z" fill-rule="evenodd"></path></g><g id="SvgjsG2573"><path d="M8 2.134v11.732c-3.234 0-5.866-2.631-5.866-5.866 0-3.234 2.631-5.865 5.866-5.866m0-1.466c-4.05 0-7.333 3.283-7.333 7.332s3.283 7.333 7.333 7.334 7.333-3.284 7.333-7.334-3.284-7.332-7.333-7.332z"></path></g><g id="SvgjsG2550"><path d="M15.818 14.884H0.137L7.978 1.3 15.818 14.884zM3.252 13.084h9.45L7.978 4.899 3.252 13.084z" fill-rule="evenodd"></path></g><g id="SvgjsG2554"><path d="M0 0h4.958v4.958H0V0z m5.521 0h4.958v4.958H5.521V0z m5.521 0h4.958v4.958h-4.958V0zM0 5.521h4.958v4.958H0V5.521z m5.521 0h4.958v4.958H5.521V5.521z m5.521 0h4.958v4.958h-4.958V5.521zM0 11.042h4.958v4.958H0v-4.958z m5.521 0h4.958v4.958H5.521v-4.958z m5.521 0h4.958v4.958h-4.958v-4.958z" fill-rule="evenodd"></path></g><g id="SvgjsG2561"><path d="M1.099-0.001l13.803 7.969-13.803 7.969V-0.002z" fill-rule="evenodd"></path></g><g id="SvgjsG2576"><path d="M3.755 2.315h2.494v11.128h-2.494zM13.507 0.537H16v11.261h-2.493z"></path><path d="M4.451 5.556l-0.696-3.24L16 0v3.167z"></path><path d="M0 13.443a3.124 2.606 0 1 0 6.249 0 3.124 2.606 0 1 0-6.249 0"></path><path d="M9.751 11.798a3.124 2.606 0 1 0 6.249 0 3.124 2.606 0 1 0-6.249 0"></path></g><g id="SvgjsG2580"><path d="M8 14.66l5.904-5.908c1.836-1.836 1.8-4.512 0.132-6.174A4.268 4.268 0 0 0 8 2.58a4.264 4.264 0 0 0-6.03-0.02C0.3 4.24 0.26 6.92 2.1 8.744L8 14.66z"></path></g><g id="SvgjsG2558"><path d="M8 2.545C2.984 2.545 0.007 8 0.007 8S2.984 13.455 8 13.455 15.993 8 15.993 8 13.016 2.545 8 2.545z m0 8.71c-1.795 0-3.255-1.46-3.255-3.255S6.205 4.745 8 4.745 11.254 6.205 11.254 8s-1.46 3.255-3.254 3.255z"></path><path d="M6.079 8.078a1.921 1.921 0 1 0 3.842 0 1.921 1.921 0 1 0-3.842 0"></path></g><g id="SvgjsG2557"><path d="M8 2.022C3.815 2.022 0.422 4.579 0.422 7.733c0 1.544 0.814 2.944 2.135 3.972l0.003 3.427 3.961-1.798c0.479 0.071 0.973 0.11 1.48 0.11 4.185 0 7.578-2.557 7.578-5.711 0-3.154-3.392-5.711-7.577-5.711zM4.81 8.933a1.067 1.067 0 1 1 0-2.133 1.067 1.067 0 0 1 0 2.133z m3.186 0a1.067 1.067 0 1 1 0-2.133 1.067 1.067 0 0 1 0 2.133z m3.143 0c-0.589 0-1.067-0.478-1.067-1.066s0.477-1.067 1.067-1.067 1.067 0.478 1.067 1.067a1.067 1.067 0 0 1-1.067 1.066z"></path></g><g id="SvgjsG2565"><path d="M0.796 8.738c0-0.081 0.053-0.167 0.161-0.24l0.312-0.212c0.117-0.079 0.175-0.183 0.175-0.286 0-0.104-0.059-0.208-0.175-0.287l-0.312-0.211c-0.108-0.074-0.161-0.159-0.161-0.241 0-0.094 0.071-0.182 0.211-0.238l0.349-0.142c0.156-0.063 0.238-0.178 0.237-0.303 0-0.086-0.038-0.176-0.118-0.258L1.214 6.048c-0.076-0.078-0.112-0.157-0.112-0.228 0-0.111 0.091-0.2 0.261-0.23l0.371-0.066c0.192-0.034 0.301-0.158 0.301-0.31 0-0.068-0.021-0.141-0.067-0.214l-0.2-0.32c-0.045-0.073-0.066-0.141-0.066-0.2 0-0.135 0.112-0.224 0.308-0.217l0.376 0.012c0.224 0.008 0.365-0.123 0.366-0.31 0-0.048-0.009-0.1-0.029-0.154l-0.128-0.355a0.448 0.448 0 0 1-0.03-0.151c0-0.171 0.137-0.261 0.353-0.206l0.365 0.09c0.25 0.062 0.432-0.077 0.432-0.314 0-0.022-0.002-0.045-0.005-0.069l-0.053-0.375a0.536 0.536 0 0 1-0.005-0.073c0-0.227 0.166-0.322 0.395-0.21l0.339 0.165c0.253 0.123 0.477-0.006 0.497-0.286l0.027-0.376c0.02-0.281 0.218-0.37 0.44-0.196l0.298 0.231c0.222 0.173 0.467 0.093 0.545-0.177l0.104-0.362c0.078-0.271 0.29-0.316 0.472-0.101l0.243 0.289c0.181 0.216 0.438 0.189 0.57-0.06l0.177-0.333c0.133-0.248 0.35-0.248 0.483 0l0.177 0.333c0.133 0.249 0.389 0.276 0.57 0.06l0.243-0.289c0.181-0.216 0.393-0.171 0.472 0.101l0.104 0.362c0.078 0.27 0.324 0.35 0.545 0.177l0.298-0.232c0.222-0.173 0.42-0.085 0.44 0.196l0.027 0.376c0.02 0.28 0.243 0.409 0.497 0.287l0.339-0.165c0.229-0.112 0.395-0.017 0.395 0.21 0 0.023-0.002 0.047-0.005 0.073l-0.053 0.374a0.496 0.496 0 0 0-0.005 0.07c0 0.237 0.181 0.376 0.432 0.313l0.366-0.09c0.216-0.054 0.352 0.036 0.352 0.206 0 0.045-0.01 0.096-0.03 0.152l-0.128 0.354a0.445 0.445 0 0 0-0.029 0.154c0 0.187 0.142 0.318 0.366 0.31l0.376-0.012c0.196-0.007 0.308 0.082 0.308 0.217 0 0.059-0.021 0.127-0.066 0.2l-0.2 0.32c-0.046 0.074-0.067 0.147-0.067 0.214 0 0.152 0.109 0.276 0.301 0.31l0.37 0.066c0.17 0.03 0.261 0.119 0.262 0.23 0 0.07-0.036 0.149-0.112 0.228L14.525 6.318c-0.08 0.082-0.118 0.173-0.118 0.259 0 0.125 0.082 0.24 0.237 0.303l0.35 0.141c0.14 0.056 0.211 0.145 0.211 0.239 0 0.081-0.053 0.167-0.162 0.241l-0.311 0.21c-0.117 0.079-0.176 0.183-0.175 0.287 0 0.104 0.059 0.208 0.175 0.286l0.312 0.212c0.108 0.073 0.162 0.159 0.161 0.24 0 0.094-0.071 0.182-0.211 0.24l-0.349 0.14c-0.156 0.063-0.238 0.178-0.238 0.303 0 0.086 0.038 0.176 0.118 0.259l0.262 0.272c0.075 0.078 0.112 0.157 0.111 0.227 0 0.111-0.091 0.2-0.261 0.231l-0.37 0.066c-0.192 0.034-0.301 0.157-0.302 0.309 0 0.068 0.022 0.141 0.068 0.215l0.2 0.32c0.045 0.073 0.067 0.141 0.066 0.2 0 0.135-0.112 0.224-0.308 0.218l-0.376-0.014c-0.224-0.007-0.366 0.123-0.366 0.311 0 0.048 0.009 0.1 0.029 0.154l0.128 0.353a0.448 0.448 0 0 1 0.03 0.152c0 0.171-0.136 0.26-0.352 0.207l-0.366-0.091c-0.25-0.062-0.432 0.077-0.432 0.314 0 0.022 0.002 0.046 0.005 0.07l0.053 0.373c0.004 0.026 0.005 0.05 0.005 0.074 0 0.226-0.166 0.322-0.395 0.209l-0.34-0.164c-0.253-0.123-0.477 0.006-0.496 0.287l-0.027 0.376c-0.02 0.281-0.218 0.369-0.441 0.195l-0.297-0.231c-0.222-0.173-0.467-0.093-0.546 0.177l-0.104 0.362c-0.078 0.271-0.29 0.316-0.471 0.101l-0.243-0.288c-0.181-0.216-0.438-0.188-0.57 0.059l-0.177 0.333c-0.133 0.249-0.35 0.249-0.483 0l-0.177-0.333c-0.133-0.248-0.389-0.276-0.57-0.059l-0.243 0.288c-0.182 0.216-0.394 0.171-0.472-0.1l-0.104-0.363c-0.078-0.27-0.323-0.35-0.545-0.176l-0.298 0.231c-0.222 0.173-0.42 0.086-0.44-0.195l-0.027-0.376c-0.019-0.281-0.243-0.41-0.497-0.288l-0.339 0.165c-0.229 0.112-0.395 0.017-0.395-0.209 0-0.023 0.002-0.048 0.005-0.074l0.053-0.373c0.003-0.024 0.005-0.047 0.004-0.07 0-0.237-0.181-0.376-0.431-0.314l-0.366 0.091c-0.216 0.053-0.352-0.037-0.352-0.207 0-0.045 0.009-0.096 0.03-0.151l0.128-0.354c0.02-0.054 0.029-0.106 0.029-0.154 0-0.187-0.142-0.318-0.366-0.311l-0.377 0.013c-0.196 0.006-0.308-0.083-0.308-0.217 0-0.059 0.021-0.127 0.067-0.2l0.2-0.32c0.046-0.074 0.067-0.147 0.067-0.215 0-0.152-0.109-0.276-0.301-0.309L1.363 10.408c-0.17-0.03-0.261-0.119-0.261-0.23 0-0.07 0.036-0.149 0.112-0.228l0.262-0.272c0.079-0.082 0.118-0.173 0.118-0.258 0-0.125-0.082-0.24-0.238-0.303l-0.349-0.141c-0.14-0.057-0.211-0.146-0.211-0.239z"></path></g><g id="SvgjsG2564"><path d="M7.648 0h0.716v2.72H7.648V0z m-0.042 13.226h0.715v2.72h-0.715v-2.72z m5.674-5.779H16v0.714H13.28v-0.714zM0 7.403h2.72v0.716H0V7.403zM1.036 4.064l0.347-0.625 2.376 1.318-0.347 0.626L1.036 4.064z m2.852-2.908l0.606-0.381 1.443 2.308-0.606 0.377-1.443-2.304zM10.357 12.627l0.617-0.356 1.36 2.356-0.618 0.357-1.359-2.357z m2.079-1.903l0.347-0.624 2.38 1.317-0.349 0.627-2.378-1.32zM4.336 15.016l-0.625-0.347 1.318-2.38 0.627 0.346L4.336 15.016zM1.175 11.994L0.798 11.388l2.306-1.443 0.378 0.606-2.307 1.443zM12.692 5.611l-0.359-0.621 2.355-1.36 0.359 0.621-2.355 1.36zM10.873 3.572l-0.627-0.348 1.319-2.377 0.626 0.347-1.318 2.378z m-7.283 4.392c0-2.44 1.979-4.419 4.419-4.419 2.438 0 4.415 1.979 4.415 4.419S10.447 12.381 8.009 12.381c-2.44 0-4.419-1.977-4.419-4.417"></path></g><g id="SvgjsG2571"><path d="M15.98 13.856L11.694 9.568a6.304 6.304 0 1 0-5.388 3.04 6.26 6.26 0 0 0 3.26-0.914l4.29 4.292L15.98 13.856zM2.406 6.308a3.908 3.908 0 0 1 3.9-3.9 3.906 3.906 0 0 1 3.9 3.9 3.9 3.9 0 0 1-7.8 0z"></path></g><g id="SvgjsG2551"><path d="M11.675 13.031H3.563V2.436h8.112v10.595z m-4.054 1.54a0.457 0.457 0 1 1 0-0.912 0.457 0.457 0 0 1 0 0.912zM6.921 1.287h1.395c0.196 0 0.196 0.356 0 0.356h-1.397c-0.199 0-0.199-0.356 0-0.356zM11.495 0.409H3.744C3.413 0.409 3.143 0.761 3.143 1.191V14.276c0 0.427 0.267 0.779 0.601 0.778h7.751c0.332 0 0.604-0.35 0.605-0.778V1.191c0-0.432-0.272-0.782-0.605-0.782z" fill-rule="evenodd"></path></g><g id="SvgjsG2556"><path d="M13.74 13.722c0.417-0.509 0.563-1.217 0.321-1.881l-0.22-0.607h1.332V0H0.72v11.234h7.773l0.847 2.326a1.922 1.922 0 0 0 1.455 1.234l0.399 1.206 3.335 0-0.789-2.278z m-1.212-6.07c-0.712 0.259-1.08 1.048-0.821 1.762l0.514 1.402H1.138V0.419h13.618v10.396h-1.07l-1.158-3.163z" fill-rule="evenodd"></path></g><g id="SvgjsG2549"><path d="M16 14.068H0V2h16v12.068z m-14.107-1.117h12.214L10.088 8.837l-0.761 0.766c-0.33 0.329-0.801 0.518-1.297 0.517l-0.008 0c-0.498-0.002-0.971-0.195-1.299-0.529l-0.773-0.783-4.057 4.144zM1.116 3.916v8.233L5.165 8.014 1.116 3.916zM10.874 8.045l4.01 4.104V4.008l-4.01 4.037zM1.896 3.117l5.622 5.691c0.122 0.124 0.307 0.195 0.508 0.195h0.003c0.198 0 0.388-0.07 0.506-0.189L14.196 3.116H1.896z"></path></g><g><path d="M4.246 7.191h2.928c1.218 0 1.428 0.799 1.579 0.955 0.453 0.439 0.759 0.702 1.402 0.702h3.245V1.657h-3.245c-0.643 0-0.95-0.263-1.403-0.712C8.601 0.809 8.392 0 7.174 0H2.702v15.659H4.246V7.191z" fill-rule="evenodd"></path></g><g id="SvgjsG2566"><path d="M9.412 5.113c1.273 0 2.378 0.701 2.988 1.734l3.596 0.004v-1.949c0-0.725-0.584-1.314-1.299-1.314H1.295C0.578 3.588 0 4.176 0 4.902l0.004 1.932 6.418 0.005c0.614-1.029 1.715-1.725 2.99-1.725M3.361 2.97h-1.192l-0.138 0.434h1.429l-0.099-0.434zM14.11 2.738h-1.587L12.242 3.408H14.368l-0.258-0.67zM8.662 3.177h-1.366V2.508h1.366v0.669zM9.914 2.24h-3.857l-0.795 1.176h5.38L9.914 2.24z m2.672 4.955c0.199 0.443 0.316 0.93 0.316 1.449 0 1.949-1.563 3.531-3.49 3.531-1.93 0-3.493-1.582-3.493-3.531 0-0.519 0.116-1.006 0.316-1.451H0V12.514c0 0.721 0.577 1.309 1.295 1.309h13.401c0.716 0 1.299-0.588 1.3-1.309L16 7.195H12.586z"></path><path d="M11.315 7.484a1.717 1.717 0 0 0-0.199-0.278c-0.408-0.496-1.018-0.822-1.704-0.823-0.69 0-1.299 0.324-1.707 0.818-0.075 0.09-0.144 0.182-0.203 0.283-0.205 0.34-0.33 0.734-0.329 1.16 0 1.246 1.002 2.258 2.237 2.258 1.23 0 2.232-1.013 2.232-2.259 0-0.427-0.122-0.819-0.329-1.16"></path></g><g id="SvgjsG2559"><path d="M9.46 6.313c-1.577 0-2.86 1.283-2.86 2.86s1.283 2.86 2.86 2.86 2.86-1.283 2.86-2.86-1.283-2.86-2.86-2.86z"></path><path d="M13.26 3.839l-0.624-1.912h-6.352L5.661 3.839H0v10.668h16v-10.668H13.26zM3.744 6.743H1.543v-1.176H3.744v1.176z m5.716 6.624c-2.312 0-4.193-1.881-4.193-4.194s1.881-4.194 4.193-4.193 4.193 1.881 4.194 4.193-1.88 4.194-4.193 4.194z"></path></g><g><path d="M2.796 14.654h-1.184C0.792 14.653 0.001 14.052 0 13.006c0 0 0.001-7.471 0-7.494 0.001-0.926 0.773-1.629 1.612-1.63h1.184v10.772z m7.448-10.754V2.352c0.004-0.558-0.49-0.914-1.093-0.91 0 0-2.303-0.004-2.294 0-0.6-0.004-1.103 0.352-1.102 0.91v1.548H3.597v10.772h8.823V3.9h-2.176z m-0.81 0H6.547v-1.593h2.887v1.593z m3.779 10.754h1.184c0.814-0.002 1.605-0.602 1.603-1.648 0 0 0.003-7.471 0-7.494 0.003-0.926-0.77-1.63-1.602-1.631h-1.184v10.772z"></path></g><g id="SvgjsG2577"><path d="M4.776 3.363c0.929-0.003 1.68-0.755 1.681-1.682C6.456 0.754 5.704 0.002 4.776 0 3.85 0.002 3.098 0.754 3.094 1.682c0.004 0.926 0.756 1.678 1.682 1.681z"></path><path d="M3.5 5.4C3.2 3.469 5.986 2.883 6.432 4.862l0.762 3.784h2.832c0.827 0.003 1.257 0.664 1.259 1.276v5.143c-0.002 1.253-1.781 1.247-1.781-0.017-0.001-1.176 0-4.008 0-4.008H5.885c-0.842 0.002-1.372-0.577-1.507-1.242L3.5 5.4z"></path><path d="M8.18 11.379c0.938 0 0.933 1.39 0.008 1.392H5.596c-1.266-0.002-2.525-0.95-2.858-2.419L1.935 6.418c-0.168-0.892 1.118-1.189 1.309-0.273l0.77 3.76c0.212 0.962 0.923 1.474 1.781 1.474H8.179z m3.511-8.563l1.25-0.604c0.18-0.083 0.062-0.344-0.124-0.257l-1.06 0.472V1.176c-0.004-0.2-0.301-0.191-0.298 0v1.499a0.159 0.159 0 0 0 0.232 0.141z"></path><path d="M11.699 0.075C10.341 0.072 9.242 1.171 9.24 2.526c0.002 1.356 1.101 2.454 2.459 2.451 1.353 0.003 2.451-1.095 2.451-2.451C14.15 1.171 13.052 0.072 11.699 0.075z m0 4.488c-1.128 0.001-2.04-0.912-2.037-2.036-0.003-1.125 0.909-2.038 2.037-2.038 1.122 0 2.035 0.912 2.037 2.038-0.002 1.125-0.915 2.038-2.037 2.036z"></path><path d="M11.691 2.816l1.25-0.604c0.18-0.083 0.062-0.344-0.124-0.257l-1.06 0.472V1.176c-0.004-0.2-0.301-0.191-0.298 0v1.499a0.159 0.159 0 0 0 0.232 0.141z"></path></g><g id="SvgjsG2578"><path d="M8.579 0C5.824 0 3.283 2.068 2.755 4.347c-0.119 0.507-0.25 1.83-0.25 1.829L1.236 9.37A0.488 0.488 0 0 0 1.2 9.561a0.491 0.491 0 0 0 0.491 0.489h0.814v1.697c0 1.323 1.072 2.395 2.394 2.396h0.951V16h6.478V10.847c1.413-1.111 2.32-2.838 2.32-4.775C14.648 2.718 11.93 0 8.579 0z m-4.583 7.387c-0.372 0-0.675-0.304-0.675-0.679a0.677 0.677 0 0 1 0.675-0.677c0.375 0 0.68 0.303 0.68 0.677a0.68 0.68 0 0 1-0.68 0.679z"></path></g><g id="SvgjsG2570"><path d="M13.113 6.956a0.719 0.719 0 1 0 1.437 0 0.719 0.719 0 1 0-1.437 0"></path><path d="M8.74 3.712a1.025 1.025 0 0 0 1.025-1.025A1.026 1.026 0 0 0 8.74 1.663a1.025 1.025 0 0 0 0 2.049z m-5.559 0.007c-0.575 0-1.04-0.462-1.04-1.032C2.143 2.117 2.606 1.655 3.182 1.655c0.574 0 1.04 0.462 1.04 1.032s-0.466 1.032-1.04 1.032z m11.692 4.31h-1.94c-0.009 0-0.648-0.058-0.648-0.058l-0.813-2.832C11.145 4 10.189 4.035 10.189 4.035H7.56s-0.954-0.035-1.281 1.104l-0.401 1.395-0.4-1.395c-0.328-1.139-1.282-1.105-1.282-1.104h-2.034s-0.955-0.035-1.282 1.104L0.061 7.993c-0.078 0.267 0.068 0.47 0.301 0.537 0.233 0.067 0.471-0.051 0.532-0.264l0.798-2.78 0.389-0.001-1.164 4.815h1.029v3.42a0.509 0.509 0 0 0 0.509 0.511 0.512 0.512 0 0 0 0.511-0.511V10.3h0.431v3.42a0.51 0.51 0 0 0 0.509 0.511 0.512 0.512 0 0 0 0.512-0.512V10.299h1.011l-1.152-4.815 0.387 0.001L5.453 8.237c0.013 0.047 0.034 0.089 0.061 0.128 0.077 0.116 0.211 0.182 0.363 0.176 0.15 0.005 0.284-0.059 0.361-0.175a0.373 0.373 0 0 0 0.067-0.141l0.785-2.74 0.358 0v8.136a0.603 0.603 0 0 0 0.604 0.601 0.601 0.601 0 0 0 0.6-0.601v-4.629h0.445v4.629a0.601 0.601 0 0 0 0.601 0.601c0.333 0 0.605-0.269 0.605-0.601v-8.136l0.389 0 0.764 2.781c0.04 0.137 0.155 0.228 0.292 0.262 0.006 0.002 0.009 0.006 0.015 0.005 0.12 0.028 0.681 0.186 1.094 0.304V13.883a0.423 0.423 0 0 0 0.845 0V11.362H14.032v2.521c0 0.233 0.189 0.423 0.422 0.423s0.424-0.189 0.424-0.423V9.17h0.326v1.598c0 0.174 0.142 0.316 0.314 0.316 0.174 0 0.311-0.142 0.311-0.316V8.951c0-0.509-0.447-0.921-0.956-0.922z"></path></g><g><path d="M2.115 12.192a1.05 1.05 0 1 1 0-2.1 1.05 1.05 0 0 1 0 2.1zM0 16V13.942c0-0.742 0.61-1.344 1.352-1.344h1.45c0.743 0 1.406 0.603 1.406 1.345V16H0z m13-3.897a1.051 1.051 0 0 0 1.05-1.05 1.05 1.05 0 0 0-2.099 0 1.05 1.05 0 0 0 1.051 1.049zM15.114 16V13.942c0-0.742-0.61-1.344-1.353-1.344h-1.448c-0.744 0-1.406 0.603-1.407 1.345V16h4.208z"></path><path d="M6.494 11.133a1.062 1.053 0 1 0 2.124 0 1.062 1.053 0 1 0-2.124 0"></path><path d="M4.998 16l0.836-2.277c0.335-1.163 1.31-1.128 1.309-1.127h0.828s0.974-0.036 1.309 1.127L10.116 16h-5.118z m2.558-7.25v-2.491l-0.414-0.414v2.49H0.885V0.414h6.257V4.483l0.414 0.414V0H0.474v8.75z"></path><path d="M3.953 2.116a0.558 0.558 0 0 0 0.558-0.558 0.558 0.558 0 0 0-0.558-0.558 0.558 0.558 0 0 0-0.558 0.558 0.558 0.558 0 0 0 0.559 0.558z m1.843 2.321l-0.458-1.557c-0.182-0.605-0.693-0.587-0.694-0.588H3.262s-0.511-0.018-0.693 0.588l-0.458 1.556a0.238 0.238 0 0 0 0.457 0.135l0.437-1.489v0l0.195 0V4.776l-0.77 2.642a0.326 0.326 0 0 0 0.313 0.418c0.142 0 0.272-0.092 0.314-0.235l0.76-2.608h0.27l0.76 2.608a0.326 0.326 0 0 0 0.405 0.222 0.327 0.327 0 0 0 0.221-0.405l-0.769-2.64v-1.696l0.194 0.001 0.001 0 0.437 1.489a0.238 0.238 0 0 0 0.457-0.135z m7.2-0.235a1.049 1.049 0 0 1-1.048-1.048c0-0.579 0.47-1.049 1.048-1.049a1.047 1.047 0 0 1 1.047 1.048 1.046 1.046 0 0 1-1.048 1.048z m0 1.559s0.254 0.033 0.409-0.183c0.141-0.197 0.151-0.85 0.153-0.968H12.432c-0.004 0.47 0.051 0.812 0.163 0.985 0.114 0.176 0.4 0.166 0.401 0.166z"></path><path d="M8.428 6.685c-0.038 0.063-0.099 0.192-0.099 0.274a0.441 0.441 0 0 0 0.442 0.441h1.454c0.165 0 0.382-0.066 0.474-0.205 0.314-0.464 0.643-0.952 0.741-1.099v2.749h3.661V6.026c0-0.737-0.576-1.4-1.256-1.401 0.002 0.346-0.044 0.92-0.247 1.172-0.211 0.257-0.461 0.235-0.461 0.235v1.072a0.365 0.365 0 0 1-0.139 0.703 0.365 0.365 0 0 1-0.365-0.366 0.365 0.365 0 0 1 0.224-0.337v-1.077s-0.218 0.018-0.423-0.188c-0.274-0.286-0.284-1.096-0.284-1.228h-0.066a1.343 1.343 0 0 0-1.119 0.598l-0.871 1.313-1.32-0.001L6.907 4.656a0.179 0.179 0 0 0-0.254 0 0.18 0.18 0 0 0 0 0.254l1.774 1.775z"></path></g><g id="SvgjsG2581"><use xlink:href="#SvgjsG2546" transform="translate(0, 0) scale(1.5)" fill="rgba(255, 255, 255, 1)"></use><use xlink:href="#SvgjsG2547" transform="translate(0, 61.5) scale(1.5)" fill="rgba(255, 255, 255, 1)"></use><use xlink:href="#SvgjsG2548" transform="translate(0, 123) scale(1.5)" fill="rgba(255, 255, 255, 1)"></use><use xlink:href="#SvgjsG2549" transform="translate(0, 184.5) scale(1.5)" fill="rgba(255, 255, 255, 1)"></use><use xlink:href="#SvgjsG2550" transform="translate(0, 246) scale(1.5)" fill="rgba(255, 255, 255, 1)"></use><use xlink:href="#SvgjsG2551" transform="translate(0, 307.5) scale(1.5)" fill="rgba(255, 255, 255, 1)"></use><use xlink:href="#SvgjsG2552" transform="translate(0, 369) scale(1.5)" fill="rgba(255, 255, 255, 1)"></use><use xlink:href="#SvgjsG2553" transform="translate(0, 430.5) scale(1.5)" fill="rgba(255, 255, 255, 1)"></use><use xlink:href="#SvgjsG2554" transform="translate(61.5, 0) scale(1.5)" fill="rgba(255, 255, 255, 1)"></use><use xlink:href="#SvgjsG2555" transform="translate(61.5, 61.5) scale(1.5)" fill="rgba(255, 255, 255, 1)"></use><use xlink:href="#SvgjsG2556" transform="translate(61.5, 123) scale(1.5)" fill="rgba(255, 255, 255, 1)"></use><use xlink:href="#SvgjsG2557" transform="translate(61.5, 184.5) scale(1.5)" fill="rgba(255, 255, 255, 1)"></use><use xlink:href="#SvgjsG2558" transform="translate(61.5, 246) scale(1.5)" fill="rgba(255, 255, 255, 1)"></use><use xlink:href="#SvgjsG2558" transform="translate(61.5, 307.5) scale(1.5)" fill="rgba(255, 255, 255, 1)"></use><use xlink:href="#SvgjsG2559" transform="translate(61.5, 369) scale(1.5)" fill="rgba(255, 255, 255, 1)"></use><use xlink:href="#SvgjsG2560" transform="translate(61.5, 430.5) scale(1.5)" fill="rgba(255, 255, 255, 1)"></use><use xlink:href="#SvgjsG2561" transform="translate(123, 0) scale(1.5)" fill="rgba(255, 255, 255, 1)"></use><use xlink:href="#SvgjsG2561" transform="translate(123, 61.5) scale(1.5)" fill="rgba(255, 255, 255, 1)"></use><use xlink:href="#SvgjsG2562" transform="translate(123, 123) scale(1.5)" fill="rgba(255, 255, 255, 1)"></use><use xlink:href="#SvgjsG2549" transform="translate(123, 184.5) scale(1.5)" fill="rgba(255, 255, 255, 1)"></use><use xlink:href="#SvgjsG2563" transform="translate(123, 246) scale(1.5)" fill="rgba(255, 255, 255, 1)"></use><use xlink:href="#SvgjsG2546" transform="translate(123, 307.5) scale(1.5)" fill="rgba(255, 255, 255, 1)"></use><use xlink:href="#SvgjsG2557" transform="translate(123, 369) scale(1.5)" fill="rgba(255, 255, 255, 1)"></use><use xlink:href="#SvgjsG2564" transform="translate(123, 430.5) scale(1.5)" fill="rgba(255, 255, 255, 1)"></use><use xlink:href="#SvgjsG2565" transform="translate(184.5, 0) scale(1.5)" fill="rgba(255, 255, 255, 1)"></use><use xlink:href="#SvgjsG2566" transform="translate(184.5, 61.5) scale(1.5)" fill="rgba(255, 255, 255, 1)"></use><use xlink:href="#SvgjsG2564" transform="translate(184.5, 123) scale(1.5)" fill="rgba(255, 255, 255, 1)"></use><use xlink:href="#SvgjsG2567" transform="translate(184.5, 184.5) scale(1.5)" fill="rgba(255, 255, 255, 1)"></use><use xlink:href="#SvgjsG2568" transform="translate(184.5, 246) scale(1.5)" fill="rgba(255, 255, 255, 1)"></use><use xlink:href="#SvgjsG2547" transform="translate(184.5, 307.5) scale(1.5)" fill="rgba(255, 255, 255, 1)"></use><use xlink:href="#SvgjsG2569" transform="translate(184.5, 369) scale(1.5)" fill="rgba(255, 255, 255, 1)"></use><use xlink:href="#SvgjsG2554" transform="translate(184.5, 430.5) scale(1.5)" fill="rgba(255, 255, 255, 1)"></use><use xlink:href="#SvgjsG2559" transform="translate(246, 0) scale(1.5)" fill="rgba(255, 255, 255, 1)"></use><use xlink:href="#SvgjsG2549" transform="translate(246, 61.5) scale(1.5)" fill="rgba(255, 255, 255, 1)"></use><use xlink:href="#SvgjsG2561" transform="translate(246, 123) scale(1.5)" fill="rgba(255, 255, 255, 1)"></use><use xlink:href="#SvgjsG2570" transform="translate(246, 184.5) scale(1.5)" fill="rgba(255, 255, 255, 1)"></use><use xlink:href="#SvgjsG2550" transform="translate(246, 246) scale(1.5)" fill="rgba(255, 255, 255, 1)"></use><use xlink:href="#SvgjsG2571" transform="translate(246, 307.5) scale(1.5)" fill="rgba(255, 255, 255, 1)"></use><use xlink:href="#SvgjsG2560" transform="translate(246, 369) scale(1.5)" fill="rgba(255, 255, 255, 1)"></use><use xlink:href="#SvgjsG2572" transform="translate(246, 430.5) scale(1.5)" fill="rgba(255, 255, 255, 1)"></use><use xlink:href="#SvgjsG2573" transform="translate(307.5, 0) scale(1.5)" fill="rgba(255, 255, 255, 1)"></use><use xlink:href="#SvgjsG2571" transform="translate(307.5, 61.5) scale(1.5)" fill="rgba(255, 255, 255, 1)"></use><use xlink:href="#SvgjsG2546" transform="translate(307.5, 123) scale(1.5)" fill="rgba(255, 255, 255, 1)"></use><use xlink:href="#SvgjsG2573" transform="translate(307.5, 184.5) scale(1.5)" fill="rgba(255, 255, 255, 1)"></use><use xlink:href="#SvgjsG2567" transform="translate(307.5, 246) scale(1.5)" fill="rgba(255, 255, 255, 1)"></use><use xlink:href="#SvgjsG2570" transform="translate(307.5, 307.5) scale(1.5)" fill="rgba(255, 255, 255, 1)"></use><use xlink:href="#SvgjsG2565" transform="translate(307.5, 369) scale(1.5)" fill="rgba(255, 255, 255, 1)"></use><use xlink:href="#SvgjsG2551" transform="translate(307.5, 430.5) scale(1.5)" fill="rgba(255, 255, 255, 1)"></use><use xlink:href="#SvgjsG2574" transform="translate(369, 0) scale(1.5)" fill="rgba(255, 255, 255, 1)"></use><use xlink:href="#SvgjsG2550" transform="translate(369, 61.5) scale(1.5)" fill="rgba(255, 255, 255, 1)"></use><use xlink:href="#SvgjsG2568" transform="translate(369, 123) scale(1.5)" fill="rgba(255, 255, 255, 1)"></use><use xlink:href="#SvgjsG2562" transform="translate(369, 184.5) scale(1.5)" fill="rgba(255, 255, 255, 1)"></use><use xlink:href="#SvgjsG2571" transform="translate(369, 246) scale(1.5)" fill="rgba(255, 255, 255, 1)"></use><use xlink:href="#SvgjsG2549" transform="translate(369, 307.5) scale(1.5)" fill="rgba(255, 255, 255, 1)"></use><use xlink:href="#SvgjsG2569" transform="translate(369, 369) scale(1.5)" fill="rgba(255, 255, 255, 1)"></use><use xlink:href="#SvgjsG2575" transform="translate(369, 430.5) scale(1.5)" fill="rgba(255, 255, 255, 1)"></use><use xlink:href="#SvgjsG2576" transform="translate(430.5, 0) scale(1.5)" fill="rgba(255, 255, 255, 1)"></use><use xlink:href="#SvgjsG2574" transform="translate(430.5, 61.5) scale(1.5)" fill="rgba(255, 255, 255, 1)"></use><use xlink:href="#SvgjsG2558" transform="translate(430.5, 123) scale(1.5)" fill="rgba(255, 255, 255, 1)"></use><use xlink:href="#SvgjsG2577" transform="translate(430.5, 184.5) scale(1.5)" fill="rgba(255, 255, 255, 1)"></use><use xlink:href="#SvgjsG2578" transform="translate(430.5, 246) scale(1.5)" fill="rgba(255, 255, 255, 1)"></use><use xlink:href="#SvgjsG2562" transform="translate(430.5, 307.5) scale(1.5)" fill="rgba(255, 255, 255, 1)"></use><use xlink:href="#SvgjsG2579" transform="translate(430.5, 369) scale(1.5)" fill="rgba(255, 255, 255, 1)"></use><use xlink:href="#SvgjsG2568" transform="translate(430.5, 430.5) scale(1.5)" fill="rgba(255, 255, 255, 1)"></use><use xlink:href="#SvgjsG2579" transform="translate(492, 0) scale(1.5)" fill="rgba(255, 255, 255, 1)"></use><use xlink:href="#SvgjsG2549" transform="translate(492, 61.5) scale(1.5)" fill="rgba(255, 255, 255, 1)"></use><use xlink:href="#SvgjsG2565" transform="translate(492, 123) scale(1.5)" fill="rgba(255, 255, 255, 1)"></use><use xlink:href="#SvgjsG2570" transform="translate(492, 184.5) scale(1.5)" fill="rgba(255, 255, 255, 1)"></use><use xlink:href="#SvgjsG2567" transform="translate(492, 246) scale(1.5)" fill="rgba(255, 255, 255, 1)"></use><use xlink:href="#SvgjsG2546" transform="translate(492, 307.5) scale(1.5)" fill="rgba(255, 255, 255, 1)"></use><use xlink:href="#SvgjsG2564" transform="translate(492, 369) scale(1.5)" fill="rgba(255, 255, 255, 1)"></use><use xlink:href="#SvgjsG2580" transform="translate(492, 430.5) scale(1.5)" fill="rgba(255, 255, 255, 1)"></use><use xlink:href="#SvgjsG2579" transform="translate(553.5, 0) scale(1.5)" fill="rgba(255, 255, 255, 1)"></use><use xlink:href="#SvgjsG2565" transform="translate(553.5, 61.5) scale(1.5)" fill="rgba(255, 255, 255, 1)"></use><use xlink:href="#SvgjsG2565" transform="translate(553.5, 123) scale(1.5)" fill="rgba(255, 255, 255, 1)"></use><use xlink:href="#SvgjsG2579" transform="translate(553.5, 184.5) scale(1.5)" fill="rgba(255, 255, 255, 1)"></use><use xlink:href="#SvgjsG2568" transform="translate(553.5, 246) scale(1.5)" fill="rgba(255, 255, 255, 1)"></use><use xlink:href="#SvgjsG2579" transform="translate(553.5, 307.5) scale(1.5)" fill="rgba(255, 255, 255, 1)"></use><use xlink:href="#SvgjsG2552" transform="translate(553.5, 369) scale(1.5)" fill="rgba(255, 255, 255, 1)"></use><use xlink:href="#SvgjsG2558" transform="translate(553.5, 430.5) scale(1.5)" fill="rgba(255, 255, 255, 1)"></use></g></defs></svg>