<svg xmlns="http://www.w3.org/2000/svg" version="1.1" xmlns:xlink="http://www.w3.org/1999/xlink" xmlns:svgjs="http://svgjs.com/svgjs" width="1080" height="480" preserveAspectRatio="none" viewBox="0 0 1080 480"><g mask="url(&quot;#SvgjsMask1376&quot;)" fill="none"><use xlink:href="#SvgjsSymbol1383" x="0" y="0"></use><use xlink:href="#SvgjsSymbol1383" x="720" y="0"></use></g><defs><mask id="SvgjsMask1376"><rect width="1080" height="480" fill="#ffffff"></rect></mask><path d="M-1 0 a1 1 0 1 0 2 0 a1 1 0 1 0 -2 0z" id="SvgjsPath1381"></path><path d="M-3 0 a3 3 0 1 0 6 0 a3 3 0 1 0 -6 0z" id="SvgjsPath1379"></path><path d="M-5 0 a5 5 0 1 0 10 0 a5 5 0 1 0 -10 0z" id="SvgjsPath1377"></path><path d="M2 -2 L-2 2z" id="SvgjsPath1378"></path><path d="M6 -6 L-6 6z" id="SvgjsPath1380"></path><path d="M30 -30 L-30 30z" id="SvgjsPath1382"></path></defs><symbol id="SvgjsSymbol1383"><use xlink:href="#SvgjsPath1377" x="30" y="30" stroke="rgba(128, 128, 128, 1)"></use><use xlink:href="#SvgjsPath1378" x="30" y="90" stroke="rgba(0, 0, 0, 1)"></use><use xlink:href="#SvgjsPath1379" x="30" y="150" stroke="rgba(255, 0, 255, 1)"></use><use xlink:href="#SvgjsPath1378" x="30" y="210" stroke="rgba(0, 128, 0, 1)"></use><use xlink:href="#SvgjsPath1380" x="30" y="270" stroke="rgba(0, 255, 0, 1)"></use><use xlink:href="#SvgjsPath1380" x="30" y="330" stroke="rgba(128, 128, 0, 1)"></use><use xlink:href="#SvgjsPath1378" x="30" y="390" stroke="rgba(192, 192, 192, 1)"></use><use xlink:href="#SvgjsPath1380" x="30" y="450" stroke="rgba(192, 192, 192, 1)"></use><use xlink:href="#SvgjsPath1380" x="90" y="30" stroke="rgba(128, 128, 0, 1)"></use><use xlink:href="#SvgjsPath1381" x="90" y="90" stroke="rgba(0, 255, 255, 1)"></use><use xlink:href="#SvgjsPath1380" x="90" y="150" stroke="rgba(255, 165, 0, 1)"></use><use xlink:href="#SvgjsPath1377" x="90" y="210" stroke="rgba(0, 128, 0, 1)"></use><use xlink:href="#SvgjsPath1381" x="90" y="270" stroke="rgba(255, 255, 255, 1)"></use><use xlink:href="#SvgjsPath1377" x="90" y="330" stroke="rgba(173, 216, 230, 1)"></use><use xlink:href="#SvgjsPath1380" x="90" y="390" stroke="rgba(128, 0, 128, 1)"></use><use xlink:href="#SvgjsPath1378" x="90" y="450" stroke="rgba(0, 0, 255, 1)"></use><use xlink:href="#SvgjsPath1380" x="150" y="30" stroke="rgba(255, 0, 255, 1)"></use><use xlink:href="#SvgjsPath1378" x="150" y="90" stroke="rgba(0, 255, 255, 1)"></use><use xlink:href="#SvgjsPath1377" x="150" y="150" stroke="rgba(0, 0, 0, 1)"></use><use xlink:href="#SvgjsPath1381" x="150" y="210" stroke="rgba(165, 42, 42, 1)"></use><use xlink:href="#SvgjsPath1380" x="150" y="270" stroke="rgba(255, 255, 0, 1)"></use><use xlink:href="#SvgjsPath1380" x="150" y="330" stroke="rgba(128, 0, 0, 1)"></use><use xlink:href="#SvgjsPath1381" x="150" y="390" stroke="rgba(165, 42, 42, 1)"></use><use xlink:href="#SvgjsPath1377" x="150" y="450" stroke="rgba(0, 0, 0, 1)"></use><use xlink:href="#SvgjsPath1380" x="210" y="30" stroke="rgba(255, 255, 0, 1)"></use><use xlink:href="#SvgjsPath1380" x="210" y="90" stroke="rgba(255, 255, 0, 1)"></use><use xlink:href="#SvgjsPath1380" x="210" y="150" stroke="rgba(173, 216, 230, 1)"></use><use xlink:href="#SvgjsPath1377" x="210" y="210" stroke="rgba(255, 255, 0, 1)"></use><use xlink:href="#SvgjsPath1381" x="210" y="270" stroke="rgba(255, 255, 255, 1)"></use><use xlink:href="#SvgjsPath1377" x="210" y="330" stroke="rgba(0, 255, 255, 1)"></use><use xlink:href="#SvgjsPath1380" x="210" y="390" stroke="rgba(128, 0, 0, 1)"></use><use xlink:href="#SvgjsPath1381" x="210" y="450" stroke="rgba(255, 0, 255, 1)"></use><use xlink:href="#SvgjsPath1379" x="270" y="30" stroke="rgba(0, 255, 0, 1)"></use><use xlink:href="#SvgjsPath1377" x="270" y="90" stroke="rgba(0, 255, 0, 1)"></use><use xlink:href="#SvgjsPath1380" x="270" y="150" stroke="rgba(0, 0, 160, 1)"></use><use xlink:href="#SvgjsPath1377" x="270" y="210" stroke="rgba(192, 192, 192, 1)"></use><use xlink:href="#SvgjsPath1382" x="270" y="270" stroke="rgba(255, 255, 0, 1)" stroke-width="3"></use><use xlink:href="#SvgjsPath1377" x="270" y="330" stroke="rgba(255, 255, 0, 1)"></use><use xlink:href="#SvgjsPath1380" x="270" y="390" stroke="rgba(128, 128, 0, 1)"></use><use xlink:href="#SvgjsPath1381" x="270" y="450" stroke="rgba(255, 255, 0, 1)"></use><use xlink:href="#SvgjsPath1380" x="330" y="30" stroke="rgba(128, 128, 0, 1)"></use><use xlink:href="#SvgjsPath1380" x="330" y="90" stroke="rgba(128, 128, 128, 1)"></use><use xlink:href="#SvgjsPath1381" x="330" y="150" stroke="rgba(128, 128, 0, 1)"></use><use xlink:href="#SvgjsPath1377" x="330" y="210" stroke="rgba(165, 42, 42, 1)"></use><use xlink:href="#SvgjsPath1377" x="330" y="270" stroke="rgba(255, 255, 255, 1)"></use><use xlink:href="#SvgjsPath1380" x="330" y="330" stroke="rgba(0, 0, 160, 1)"></use><use xlink:href="#SvgjsPath1377" x="330" y="390" stroke="rgba(255, 255, 255, 1)"></use><use xlink:href="#SvgjsPath1377" x="330" y="450" stroke="rgba(0, 0, 255, 1)"></use><use xlink:href="#SvgjsPath1377" x="390" y="30" stroke="rgba(165, 42, 42, 1)"></use><use xlink:href="#SvgjsPath1377" x="390" y="90" stroke="rgba(0, 255, 255, 1)"></use><use xlink:href="#SvgjsPath1380" x="390" y="150" stroke="rgba(0, 128, 0, 1)"></use><use xlink:href="#SvgjsPath1378" x="390" y="210" stroke="rgba(0, 0, 160, 1)"></use><use xlink:href="#SvgjsPath1377" x="390" y="270" stroke="rgba(0, 0, 0, 1)"></use><use xlink:href="#SvgjsPath1377" x="390" y="330" stroke="rgba(0, 0, 255, 1)"></use><use xlink:href="#SvgjsPath1378" x="390" y="390" stroke="rgba(255, 165, 0, 1)"></use><use xlink:href="#SvgjsPath1382" x="390" y="450" stroke="rgba(128, 0, 0, 1)" stroke-width="3"></use><use xlink:href="#SvgjsPath1380" x="450" y="30" stroke="rgba(255, 165, 0, 1)"></use><use xlink:href="#SvgjsPath1377" x="450" y="90" stroke="rgba(0, 0, 255, 1)"></use><use xlink:href="#SvgjsPath1382" x="450" y="150" stroke="rgba(192, 192, 192, 1)" stroke-width="3"></use><use xlink:href="#SvgjsPath1380" x="450" y="210" stroke="rgba(0, 0, 160, 1)"></use><use xlink:href="#SvgjsPath1377" x="450" y="270" stroke="rgba(255, 0, 255, 1)"></use><use xlink:href="#SvgjsPath1381" x="450" y="330" stroke="rgba(255, 0, 255, 1)"></use><use xlink:href="#SvgjsPath1381" x="450" y="390" stroke="rgba(165, 42, 42, 1)"></use><use xlink:href="#SvgjsPath1378" x="450" y="450" stroke="rgba(128, 128, 0, 1)"></use><use xlink:href="#SvgjsPath1378" x="510" y="30" stroke="rgba(128, 0, 128, 1)"></use><use xlink:href="#SvgjsPath1380" x="510" y="90" stroke="rgba(255, 255, 255, 1)"></use><use xlink:href="#SvgjsPath1380" x="510" y="150" stroke="rgba(0, 128, 0, 1)"></use><use xlink:href="#SvgjsPath1380" x="510" y="210" stroke="rgba(173, 216, 230, 1)"></use><use xlink:href="#SvgjsPath1381" x="510" y="270" stroke="rgba(0, 0, 0, 1)"></use><use xlink:href="#SvgjsPath1377" x="510" y="330" stroke="rgba(128, 128, 128, 1)"></use><use xlink:href="#SvgjsPath1378" x="510" y="390" stroke="rgba(165, 42, 42, 1)"></use><use xlink:href="#SvgjsPath1380" x="510" y="450" stroke="rgba(255, 0, 0, 1)"></use><use xlink:href="#SvgjsPath1378" x="570" y="30" stroke="rgba(0, 0, 255, 1)"></use><use xlink:href="#SvgjsPath1381" x="570" y="90" stroke="rgba(192, 192, 192, 1)"></use><use xlink:href="#SvgjsPath1380" x="570" y="150" stroke="rgba(128, 0, 128, 1)"></use><use xlink:href="#SvgjsPath1378" x="570" y="210" stroke="rgba(165, 42, 42, 1)"></use><use xlink:href="#SvgjsPath1379" x="570" y="270" stroke="rgba(0, 0, 160, 1)"></use><use xlink:href="#SvgjsPath1381" x="570" y="330" stroke="rgba(192, 192, 192, 1)"></use><use xlink:href="#SvgjsPath1380" x="570" y="390" stroke="rgba(173, 216, 230, 1)"></use><use xlink:href="#SvgjsPath1382" x="570" y="450" stroke="rgba(255, 0, 255, 1)" stroke-width="3"></use><use xlink:href="#SvgjsPath1380" x="630" y="30" stroke="rgba(128, 128, 0, 1)"></use><use xlink:href="#SvgjsPath1377" x="630" y="90" stroke="rgba(255, 255, 255, 1)"></use><use xlink:href="#SvgjsPath1381" x="630" y="150" stroke="rgba(192, 192, 192, 1)"></use><use xlink:href="#SvgjsPath1381" x="630" y="210" stroke="rgba(255, 255, 0, 1)"></use><use xlink:href="#SvgjsPath1377" x="630" y="270" stroke="rgba(255, 165, 0, 1)"></use><use xlink:href="#SvgjsPath1377" x="630" y="330" stroke="rgba(255, 165, 0, 1)"></use><use xlink:href="#SvgjsPath1378" x="630" y="390" stroke="rgba(173, 216, 230, 1)"></use><use xlink:href="#SvgjsPath1381" x="630" y="450" stroke="rgba(128, 0, 0, 1)"></use><use xlink:href="#SvgjsPath1380" x="690" y="30" stroke="rgba(255, 165, 0, 1)"></use><use xlink:href="#SvgjsPath1377" x="690" y="90" stroke="rgba(128, 128, 0, 1)"></use><use xlink:href="#SvgjsPath1382" x="690" y="150" stroke="rgba(255, 255, 0, 1)" stroke-width="3"></use><use xlink:href="#SvgjsPath1380" x="690" y="210" stroke="rgba(128, 0, 128, 1)"></use><use xlink:href="#SvgjsPath1377" x="690" y="270" stroke="rgba(173, 216, 230, 1)"></use><use xlink:href="#SvgjsPath1381" x="690" y="330" stroke="rgba(128, 128, 0, 1)"></use><use xlink:href="#SvgjsPath1379" x="690" y="390" stroke="rgba(0, 0, 160, 1)"></use><use xlink:href="#SvgjsPath1378" x="690" y="450" stroke="rgba(165, 42, 42, 1)"></use></symbol></svg>