<?xml version="1.0" standalone="no"?><svg xmlns="http://www.w3.org/2000/svg" viewBox="0 0 1440 320"><path fill="#001458" fill-opacity="1" d="M0,256L17.1,224C34.3,192,69,128,103,122.7C137.1,117,171,171,206,181.3C240,192,274,160,309,149.3C342.9,139,377,149,411,160C445.7,171,480,181,514,192C548.6,203,583,213,617,192C651.4,171,686,117,720,122.7C754.3,128,789,192,823,213.3C857.1,235,891,213,926,202.7C960,192,994,192,1029,197.3C1062.9,203,1097,213,1131,213.3C1165.7,213,1200,203,1234,176C1268.6,149,1303,107,1337,128C1371.4,149,1406,235,1423,277.3L1440,320L1440,0L1422.9,0C1405.7,0,1371,0,1337,0C1302.9,0,1269,0,1234,0C1200,0,1166,0,1131,0C1097.1,0,1063,0,1029,0C994.3,0,960,0,926,0C891.4,0,857,0,823,0C788.6,0,754,0,720,0C685.7,0,651,0,617,0C582.9,0,549,0,514,0C480,0,446,0,411,0C377.1,0,343,0,309,0C274.3,0,240,0,206,0C171.4,0,137,0,103,0C68.6,0,34,0,17,0L0,0Z"></path></svg>